<?xml version="1.0" encoding="utf-8"?>
<!-- Generator: Adobe Illustrator 16.0.3, SVG Export Plug-In . SVG Version: 6.00 Build 0)  -->
<!DOCTYPE svg PUBLIC "-//W3C//DTD SVG 1.1//EN" "http://www.w3.org/Graphics/SVG/1.1/DTD/svg11.dtd">
<svg version="1.1" id="Ebene_1" xmlns="http://www.w3.org/2000/svg" xmlns:xlink="http://www.w3.org/1999/xlink" x="0px" y="0px"
	 width="88px" height="88px" viewBox="0 0 88 88" enable-background="new 0 0 88 88" xml:space="preserve">
<g>
	<circle fill="#2D3B44" cx="44" cy="44" r="40.81"/>
	<g>
		<g>
			<path fill="#FFFFFF" d="M9.96,44.29l1.1-0.24c1.38-0.3,1.74-0.99,2.44-1.7c0.7-0.72,1.05-1.61,1.05-2.69
				c0-0.95-0.27-2.03-0.81-3.22c-0.54-1.22-0.81-2.3-0.81-3.22c0-1.46,0.47-2.61,1.41-3.45s2.32-1.25,4.14-1.25h2.06v1.77
				l-2.15-0.02c-1.02,0-1.81,0.28-2.37,0.83c-0.57,0.55-0.85,1.17-0.85,1.86c0,0.87,0.28,1.92,0.85,3.18
				c0.57,1.25,0.85,2.3,0.85,3.13c0,1.22-0.28,2.27-0.83,3.13c-0.55,0.86-1.23,1.49-2.04,1.88c0.81,0.39,1.48,1.02,2.04,1.88
				c0.55,0.87,0.83,1.91,0.83,3.13c0,0.83-0.28,1.88-0.85,3.13c-0.57,1.25-0.85,2.31-0.85,3.18c0,0.69,0.28,1.31,0.85,1.86
				c0.57,0.55,1.36,0.83,2.37,0.83h2.15v1.75h-2.06c-1.82,0-3.2-0.42-4.14-1.25s-1.41-1.98-1.41-3.45c0-0.95,0.27-2.03,0.81-3.22
				c0.54-1.22,0.81-2.3,0.81-3.22c0-1.07-0.35-1.97-1.05-2.69c-0.7-0.72-1.35-1.44-2.45-1.67"/>
			<path fill="#FFFFFF" d="M78.19,44.54c-1.1,0.23-1.75,0.95-2.46,1.67c-0.7,0.72-1.05,1.61-1.05,2.68c0,0.93,0.27,2,0.8,3.22
				c0.54,1.19,0.81,2.27,0.81,3.22c0,1.46-0.47,2.61-1.41,3.45c-0.94,0.83-2.32,1.25-4.14,1.25h-2.06v-1.75h2.15
				c1.01,0,1.81-0.28,2.37-0.83c0.57-0.55,0.85-1.17,0.85-1.86c0-0.86-0.28-1.92-0.85-3.18c-0.57-1.25-0.85-2.3-0.85-3.13
				c0-1.22,0.28-2.27,0.83-3.13c0.55-0.86,1.23-1.49,2.04-1.88c-0.81-0.39-1.48-1.01-2.04-1.88c-0.55-0.86-0.83-1.91-0.83-3.13
				c0-0.83,0.28-1.88,0.85-3.13c0.57-1.25,0.85-2.31,0.85-3.18c0-0.69-0.28-1.3-0.85-1.86c-0.57-0.55-1.36-0.83-2.37-0.83
				l-2.15,0.02v-1.77h2.06c1.82,0,3.2,0.42,4.14,1.25c0.94,0.84,1.41,1.98,1.41,3.45c0,0.92-0.27,2-0.81,3.22
				c-0.54,1.19-0.8,2.27-0.8,3.22c0,1.07,0.35,1.97,1.05,2.69c0.7,0.72,1.06,1.4,2.44,1.7l1.1,0.23"/>
			<g>
				<path fill="#FFFFFF" d="M44.16,28.52c0,0,3.63,1.27,5.57,6.62l2.13,0.01v24.9h8.44v-24.9l6.48-0.02l0.01-6.61H44.16z"/>
				<path fill="#FFFFFF" d="M42.19,29.8c-1.96-0.85-4.15-1.27-6.56-1.27H22.36v31.53h8.44v-9.18h4.45c2.38,0,4.58-0.4,6.61-1.21
					c2.02-0.8,3.66-2.03,4.89-3.69c1.24-1.65,1.86-3.69,1.86-6.1c0-2.44-0.58-4.52-1.74-6.24S44.15,30.65,42.19,29.8z M38.64,42.99
					c-0.83,0.83-1.9,1.25-3.2,1.25H30.8v-9.09h4.54c1.39,0,2.5,0.43,3.32,1.3c0.82,0.87,1.23,2.01,1.23,3.43
					C39.89,41.12,39.47,42.15,38.64,42.99z"/>
			</g>
		</g>
	</g>
</g>
</svg>
